<mxfile host="app.diagrams.net" agent="Mozilla/5.0 (Macintosh; Intel Mac OS X 10_15_7) AppleWebKit/537.36 (KHTML, like Gecko) Chrome/130.0.0.0 Safari/537.36" version="24.8.3">
  <diagram name="第 1 页" id="OhMoBfmPG5n7KbtBGx5r">
    <mxGraphModel dx="928" dy="625" grid="0" gridSize="10" guides="1" tooltips="1" connect="1" arrows="1" fold="1" page="0" pageScale="1" pageWidth="827" pageHeight="1169" math="0" shadow="0">
      <root>
        <mxCell id="0" />
        <mxCell id="1" parent="0" />
        <mxCell id="IfnEin6IngcKasz7MatI-2" value="" style="rounded=1;whiteSpace=wrap;html=1;" vertex="1" parent="1">
          <mxGeometry x="133" y="146" width="580" height="265" as="geometry" />
        </mxCell>
        <mxCell id="IfnEin6IngcKasz7MatI-3" value="" style="rounded=1;whiteSpace=wrap;html=1;" vertex="1" parent="1">
          <mxGeometry x="138" y="258" width="182" height="136" as="geometry" />
        </mxCell>
        <mxCell id="IfnEin6IngcKasz7MatI-4" value="访问" style="text;html=1;align=center;verticalAlign=middle;whiteSpace=wrap;rounded=0;strokeWidth=1;fontSize=20;fontColor=#007FFF;" vertex="1" parent="1">
          <mxGeometry x="393" y="158" width="60" height="30" as="geometry" />
        </mxCell>
        <mxCell id="IfnEin6IngcKasz7MatI-5" value="" style="rounded=1;whiteSpace=wrap;html=1;" vertex="1" parent="1">
          <mxGeometry x="331" y="258" width="182" height="136" as="geometry" />
        </mxCell>
        <mxCell id="IfnEin6IngcKasz7MatI-6" value="" style="rounded=1;whiteSpace=wrap;html=1;" vertex="1" parent="1">
          <mxGeometry x="523" y="256" width="182" height="136" as="geometry" />
        </mxCell>
        <mxCell id="IfnEin6IngcKasz7MatI-7" value="读" style="text;html=1;align=center;verticalAlign=middle;whiteSpace=wrap;rounded=0;fontSize=15;" vertex="1" parent="1">
          <mxGeometry x="199" y="263.5" width="60" height="30" as="geometry" />
        </mxCell>
        <mxCell id="IfnEin6IngcKasz7MatI-8" value="写" style="text;html=1;align=center;verticalAlign=middle;whiteSpace=wrap;rounded=0;fontSize=15;" vertex="1" parent="1">
          <mxGeometry x="393" y="263.5" width="60" height="30" as="geometry" />
        </mxCell>
        <mxCell id="IfnEin6IngcKasz7MatI-9" value="修改属性" style="text;html=1;align=center;verticalAlign=middle;whiteSpace=wrap;rounded=0;fontSize=15;" vertex="1" parent="1">
          <mxGeometry x="568" y="263.5" width="92" height="30" as="geometry" />
        </mxCell>
        <mxCell id="IfnEin6IngcKasz7MatI-10" value="改变" style="text;html=1;align=center;verticalAlign=middle;whiteSpace=wrap;rounded=0;fontSize=20;fontColor=#FF8000;" vertex="1" parent="1">
          <mxGeometry x="392" y="307" width="60" height="30" as="geometry" />
        </mxCell>
        <mxCell id="IfnEin6IngcKasz7MatI-11" value="改变" style="text;html=1;align=center;verticalAlign=middle;whiteSpace=wrap;rounded=0;fontSize=20;fontColor=#FF8000;" vertex="1" parent="1">
          <mxGeometry x="584" y="309" width="60" height="30" as="geometry" />
        </mxCell>
        <mxCell id="IfnEin6IngcKasz7MatI-12" value="修改" style="text;html=1;align=center;verticalAlign=middle;whiteSpace=wrap;rounded=0;fontSize=20;labelBackgroundColor=none;fontColor=#97D077;" vertex="1" parent="1">
          <mxGeometry x="392" y="337" width="60" height="30" as="geometry" />
        </mxCell>
      </root>
    </mxGraphModel>
  </diagram>
</mxfile>
